<?xml version="1.0" encoding="UTF-8" standalone="no"?>
<!-- Created with Inkscape (http://www.inkscape.org/) -->

<svg
   width="251.50119mm"
   height="148.08195mm"
   viewBox="0 0 251.50119 148.08195"
   version="1.1"
   id="svg5"
   xml:space="preserve"
   xmlns:inkscape="http://www.inkscape.org/namespaces/inkscape"
   xmlns:sodipodi="http://sodipodi.sourceforge.net/DTD/sodipodi-0.dtd"
   xmlns="http://www.w3.org/2000/svg"
   xmlns:svg="http://www.w3.org/2000/svg"><sodipodi:namedview
     id="namedview7"
     pagecolor="#ffffff"
     bordercolor="#000000"
     borderopacity="0.25"
     inkscape:showpageshadow="2"
     inkscape:pageopacity="0.0"
     inkscape:pagecheckerboard="0"
     inkscape:deskcolor="#d1d1d1"
     inkscape:document-units="mm"
     showgrid="false" /><defs
     id="defs2" /><g
     inkscape:label="Layer 1"
     inkscape:groupmode="layer"
     id="layer1"
     transform="translate(18.520529,-4.5393466)"><g
       id="g496"
       transform="translate(12.295286,-50.287752)"
       inkscape:export-filename="Axotlacuali_logo.svg"
       inkscape:export-xdpi="100"
       inkscape:export-ydpi="100"><g
         id="g501"
         transform="translate(-1.2010454,62.982132)"><path
           style="fill:#000000;stroke-width:0.264583"
           d="m -29.42969,137.34654 c 1.59416,-18.93876 8.035987,-35.1468 19.8473352,-49.937126 6.6017984,-8.266861 16.2866486,-16.743597 26.0761948,-22.823378 3.173163,-1.970688 8.659756,-5.024662 10.101418,-5.622697 l 0.973291,-0.403744 0.548063,0.886781 c 0.301432,0.48773 0.54806,0.996754 0.54806,1.131165 0,0.134408 -0.684609,0.577844 -1.521354,0.985414 -2.980338,1.451689 -8.542051,4.698571 -11.808218,6.893541 -17.1604989,11.532422 -29.107109,25.77036 -36.089251,43.011074 -2.97543,7.34711 -4.750318,14.8392 -5.954621,25.13542 l -0.324946,2.77812 -1.290526,0.0821 -1.290526,0.0821 z m 6.89721,0.38093 c 1.323145,-13.57059 6.854952,-28.183 14.8992524,-39.356774 C -3.2478147,92.279226 3.0680961,85.44388 8.2917567,81.136003 15.553145,75.147639 23.701613,69.878814 31.389706,66.200794 l 2.328158,-1.113804 0.913504,0.885402 c 0.502425,0.486971 0.823973,0.96697 0.714549,1.066668 -0.109424,0.0997 -2.292305,1.250137 -4.850844,2.556533 -17.00028,8.680384 -30.31328459,20.651546 -39.2313115,35.277117 -5.6089135,9.19863 -9.4455385,20.1616 -10.8690625,31.05783 -0.227347,1.7402 -0.413358,3.25825 -0.413358,3.37343 0,0.11519 -0.604789,0.20943 -1.343975,0.20943 h -1.343976 z m 223.49732,-32.98124 c -4.00048,-6.486643 -8.69411,-12.274406 -14.50391,-17.884908 -6.95449,-6.715927 -15.53883,-12.653507 -25.37231,-17.549431 -2.32833,-1.15924 -4.28691,-2.153663 -4.35239,-2.209831 -0.0655,-0.05617 0.30639,-0.52758 0.82639,-1.047578 l 0.94545,-0.945452 3.67153,1.832584 c 24.33108,12.144467 41.4622,30.81259 48.87714,53.262426 1.66333,5.03597 3.23953,12.38878 3.75644,17.52343 l 0.1798,1.78593 h -1.35374 c -0.92145,0 -1.35374,-0.10783 -1.35374,-0.33767 0,-2.02982 -1.23524,-8.91055 -2.38554,-13.28837 -1.2266,-4.66818 -3.63378,-11.81361 -4.27522,-12.47396 -1.44032,-2.79936 -2.75647,-5.55116 -4.6599,-8.66717 z m 18.08958,32.51161 c -2.11258,-26.03633 -15.19073,-48.993875 -37.3283,-65.526541 -4.6291,-3.457082 -8.72566,-6.000252 -14.81666,-9.198284 -1.74625,-0.916855 -3.21907,-1.706112 -3.27292,-1.753904 -0.16798,-0.149061 0.18989,-1.278467 0.5696,-1.797603 0.34463,-0.471173 0.5493,-0.400735 4.17868,1.438029 16.16938,8.191949 29.87722,20.409142 39.31616,35.040743 8.00144,12.40329 12.89419,26.94828 14.00214,41.625 l 0.1833,2.42812 h -1.32449 -1.3245 z M 37.792797,86.168193 c -2.2107,-0.315921 -2.215936,-0.18143 0.102433,-2.63063 1.169107,-1.235078 3.128031,-3.582101 4.353171,-5.215607 2.356789,-3.142361 4.50778,-5.349311 6.611043,-6.783033 2.353014,-1.603967 6.905961,-3.463017 8.481179,-3.463017 0.670139,0 0.818792,2.160865 0.322439,4.687065 -1.513469,7.702798 -8.008619,12.906451 -16.710497,13.387781 -1.301311,0.07198 -2.723206,0.07983 -3.159768,0.01744 z m 6.614583,-3.060388 c 3.88811,-0.816107 7.873079,-3.911041 9.509656,-7.385698 1.059283,-2.248992 1.551998,-4.125052 1.148816,-4.374231 -0.1464,-0.09048 -1.29476,0.355052 -2.551912,0.990071 -1.849932,0.93445 -2.764956,1.634511 -4.799269,3.671792 -1.382447,1.384464 -3.077593,3.298721 -3.766989,4.253904 -0.689395,0.955183 -1.552599,2.017734 -1.918229,2.361224 -1.195549,1.123161 -0.929576,1.177176 2.377927,0.482938 z m 105.00259,2.851079 c -2.42026,-0.461479 -3.5571,-0.835311 -5.51926,-1.814931 -3.92819,-1.96116 -6.17723,-4.20231 -7.93812,-7.91025 -1.50542,-3.169981 -1.94322,-8.163208 -0.715,-8.154656 1.59717,0.01111 5.78007,1.681368 8.25624,3.296745 2.68331,1.750502 3.97042,3.037332 6.81822,6.816727 1.45441,1.930186 3.54984,4.420021 4.65651,5.532964 1.48939,1.497833 1.90746,2.063702 1.60924,2.178137 -0.94941,0.364326 -5.36825,0.398394 -7.16783,0.05526 z m 0.2411,-4.433012 c -0.85754,-1.067326 -2.24455,-2.807358 -3.08225,-3.86674 -1.64357,-2.078505 -3.30243,-3.512756 -5.55058,-4.799017 -1.41369,-0.808829 -3.61132,-1.695908 -3.78101,-1.526215 -0.0488,0.04875 0.0876,0.765223 0.30297,1.592152 1.3728,5.27056 5.96693,9.356936 11.64217,10.355458 1.01865,0.179226 1.89164,0.294158 1.93997,0.255407 0.0483,-0.03875 -0.61374,-0.943721 -1.47127,-2.011045 z M 88.428829,80.13432 C 74.995127,78.597033 64.244401,73.158676 60.842351,66.179442 c -3.015628,-6.186498 -0.878017,-12.137027 6.28397,-17.492868 4.652259,-3.47903 11.424684,-5.84237 20.40814,-7.121734 3.077837,-0.438325 14.040659,-0.43711 17.197919,0.0019 8.53511,1.186804 14.40315,3.136617 19.56412,6.500712 4.25239,2.771843 7.11548,6.258504 8.12309,9.892246 0.59691,2.152634 0.61701,3.43549 0.0858,5.475002 -0.6917,2.65562 -1.89183,4.588912 -4.35931,7.022451 -4.77745,4.711726 -11.99985,7.774088 -22.21269,9.418378 -3.50253,0.563914 -13.541252,0.712324 -17.504541,0.258786 z m 18.670281,-3.030373 c 7.13396,-1.286709 13.12061,-3.603411 17.21243,-6.660832 4.25215,-3.177218 6.45314,-7.384942 5.73457,-10.962989 -0.66099,-3.291311 -2.42295,-5.767573 -5.98158,-8.406508 -6.96269,-5.163243 -17.15036,-7.629064 -30.004584,-7.262296 -7.763584,0.221517 -13.879147,1.366395 -19.220537,3.598222 -7.184032,3.00175 -11.628431,7.292998 -12.584072,12.150425 -0.282887,1.437889 -0.264509,1.885013 0.138695,3.374567 1.714701,6.334622 9.490064,11.433773 20.982994,13.760828 4.96107,1.004504 6.693128,1.135316 13.947018,1.053356 5.379706,-0.06079 7.204616,-0.181157 9.775066,-0.644773 z M 42.052885,62.38016 c -4.20628,-1.065339 -7.446058,-3.593825 -11.697943,-9.129662 -1.723798,-2.244333 -3.67248,-4.447957 -4.710808,-5.327104 -1.756156,-1.486935 -4.927045,-3.30205 -6.83519,-3.91268 -0.545703,-0.174633 -0.992188,-0.408924 -0.992188,-0.520652 0,-0.258305 4.091551,-1.477359 6.35,-1.891948 2.862006,-0.525383 7.716337,-0.415404 10.376137,0.235082 4.672754,1.142778 7.530687,2.764764 11.667331,6.621648 1.428126,1.331544 3.095001,2.763721 3.704167,3.182614 1.328443,0.913511 4.331715,2.438162 6.068509,3.080761 0.691224,0.255749 1.256771,0.609497 1.256771,0.786111 0,1.162116 -3.208031,4.336031 -5.662234,5.602018 -2.901971,1.496964 -6.659398,1.999482 -9.524552,1.273812 z m 6.054587,-2.648683 c 0.859271,-0.223813 2.223738,-0.78936 3.032151,-1.25677 l 1.46984,-0.849842 -2.778125,-0.170971 c -4.13784,-0.254651 -7.317591,-1.598819 -10.735495,-5.299148 -1.027774,-1.112699 -0.69051,-1.357859 0.31079,-0.195156 2.239036,2.599956 8.883375,4.535912 11.484311,3.967761 l 0.924769,-0.202006 -1.058333,-0.500211 c -1.473822,-0.696587 -3.849251,-2.520376 -6.392468,-4.907965 -3.542935,-3.32613 -6.239391,-4.898059 -9.946283,-5.798299 -2.357511,-0.572534 -7.600648,-0.976161 -8.79299,-0.676902 -0.713385,0.179049 -0.720426,0.19798 -0.237151,0.637699 0.273931,0.249246 1.109205,0.897776 1.856158,1.441178 1.646533,1.19784 2.553858,2.188143 5.105476,5.572413 5.513446,7.312606 10.101574,9.711361 15.75735,8.238219 z m 97.238448,2.878209 c -3.79387,-0.587838 -7.33072,-2.618015 -9.26374,-5.317447 -0.58026,-0.810321 -1.05501,-1.616628 -1.05501,-1.791793 0,-0.175165 1.04179,-0.697905 2.3151,-1.161645 3.08203,-1.122474 5.76259,-2.83482 8.51448,-5.439066 5.26858,-4.985901 9.18815,-6.910001 15.39686,-7.558232 3.79388,-0.396108 9.98427,0.480652 12.47022,1.766186 l 0.76632,0.396274 -3.12889,1.543566 c -3.73308,1.84163 -5.76461,3.579701 -8.83885,7.562016 -2.78743,3.610806 -4.25917,5.214038 -6.05465,6.595631 -3.52654,2.713606 -7.57759,3.953674 -11.12184,3.40451 z m 4.23333,-2.758429 c 3.43243,-0.790525 6.62578,-3.333853 10.43612,-8.311808 2.20137,-2.875934 4.44958,-5.25117 5.70346,-6.025708 0.50933,-0.314616 1.14542,-0.77352 1.41354,-1.019792 0.46344,-0.425672 0.40001,-0.457134 -1.28546,-0.637632 -3.70004,-0.39624 -8.31393,0.472501 -11.90204,2.241015 -2.0505,1.010656 -3.0862,1.803747 -7.76719,5.947738 -1.21603,1.076523 -2.98684,2.35113 -3.93514,2.832465 -1.68807,0.856819 -1.70827,0.879433 -0.96405,1.079389 2.28717,0.614526 8.44943,-1.147547 11.26007,-3.605832 1.48149,-1.295765 1.49748,-1.010149 -0.0892,0.597374 -2.81687,2.853872 -6.71425,4.536895 -10.66477,4.552521 -1.9718,0.0078 -2.08856,0.03831 -1.59806,0.417589 2.35475,1.820783 6.32842,2.63842 9.39271,1.932681 z M 123.06676,43.709341 c -0.97567,-0.1065 -1.89841,-0.270555 -2.05052,-0.364567 -0.90953,-0.562118 0.35442,-4.970888 2.21808,-7.736877 0.66539,-0.987541 1.85841,-2.748031 2.65116,-3.912197 1.4142,-2.076757 2.13109,-3.550722 4.44404,-9.137166 2.31314,-5.586902 4.97417,-8.589883 10.38619,-11.720869 1.87411,-1.08422 7.31642,-3.3513393 8.04501,-3.3513393 0.15065,0 -0.0734,0.5655469 -0.4978,1.2567708 -3.65316,5.9494525 -4.70283,8.9958305 -5.17366,15.0151035 -0.63794,8.155683 -2.70775,12.868081 -7.10329,16.172264 -3.9955,3.00347 -8.35118,4.27751 -12.91921,3.778877 z m 6.8819,-3.321349 c 3.57402,-1.423482 6.2649,-3.561297 7.79826,-6.195446 1.59659,-2.742785 2.30433,-5.689883 2.82347,-11.757263 0.28102,-3.284312 0.78054,-5.425159 1.92923,-8.268228 0.36746,-0.909506 0.60583,-1.653646 0.5297,-1.653646 -0.30683,0 -2.93948,1.732991 -4.44005,2.922746 -2.94527,2.335223 -4.73448,5.124074 -6.9832,10.884725 -1.16819,2.992596 -2.91467,6.066967 -5.31015,9.347565 -1.79576,2.459278 -2.47249,3.669757 -2.11774,3.78801 0.147,0.049 1.07058,-0.358802 2.0524,-0.906222 2.11127,-1.177155 6.74599,-4.740737 8.43187,-9.676962 0.61428,-1.798576 0.59574,-0.713027 0.12569,0.653822 -1.78551,5.192024 -5.95721,9.561326 -9.19183,11.42012 -0.74703,0.429286 -0.73667,0.432577 0.91277,0.290221 0.91761,-0.07919 2.46542,-0.461444 3.43958,-0.849442 z M 62.849173,43.220089 C 58.749161,42.047921 54.918603,39.413198 52.936009,36.401637 50.782338,33.130212 49.88209,29.97948 49.323444,23.7582 48.756706,17.446816 47.71623,14.509801 44.074825,8.9426188 43.599303,8.2156126 43.330444,7.5807211 43.477364,7.5317468 c 0.421296,-0.1404303 3.637629,0.9853612 5.957099,2.0851256 7.005899,3.3218146 10.711468,7.3510426 13.355486,14.5220096 1.279035,3.468931 2.836751,6.451952 4.932135,9.44503 2.798516,3.997444 3.706637,6.005353 3.864493,8.544628 0.0654,1.052036 0.005,1.191958 -0.588573,1.362689 -1.3583,0.390707 -6.4233,0.222178 -8.148831,-0.27114 z m 2.531584,-3.174783 c -3.22881,-1.369686 -6.449105,-7.267251 -6.628371,-7.487096 -0.165074,-0.342497 -1.610065,-4.541363 -1.423862,-4.541363 0.05539,0 1.067802,2.436705 1.549278,3.343869 1.046556,1.971852 3.695414,4.856858 5.895818,6.421437 1.751195,1.245172 3.57855,2.109235 3.57855,1.692114 0,-0.477295 -0.850894,-1.931776 -2.025657,-3.462565 -2.653427,-3.45758 -4.503328,-6.869306 -6.270009,-11.563622 -1.075126,-2.856759 -2.828787,-5.757929 -4.582924,-7.581765 -1.411483,-1.467569 -4.337764,-3.642659 -5.49013,-4.080788 -0.66166,-0.251563 -0.719903,-0.231499 -0.539819,0.185968 1.288065,2.985982 2.027248,5.98733 2.389449,9.702022 0.214249,2.197303 0.557927,4.832577 0.763725,5.856163 1.057773,5.261017 3.528245,8.775003 7.669913,10.909638 1.580251,0.814467 4.985713,1.879375 6.074389,1.899496 0.711126,0.01315 0.641096,-0.08118 -0.96035,-1.293508 z M 94.110508,36.72505 C 90.729842,33.709216 87.9651,28.961165 87.236823,24.92048 c -0.726294,-4.029699 0.07655,-8.411426 2.702915,-14.75192 3.77757,-9.1196814 4.380227,-10.75694148 5.307581,-14.4192773 l 0.988626,-3.9043159 0.719206,3.1243269 c 0.75864,3.2956207 2.172512,7.4507086 3.809079,11.1941154 3.71287,8.4926459 4.46536,11.0901769 4.4839,15.4781239 0.0161,3.802745 -0.53344,5.902608 -2.4549,9.381024 -1.38332,2.504239 -5.638546,7.156344 -6.543894,7.154246 -0.282036,-5.29e-4 -1.244508,-0.653944 -2.138828,-1.451753 z m 6.356532,-7.516897 c 1.54141,-2.933311 1.86142,-4.254775 1.83235,-7.56662 -0.018,-2.049965 -0.19007,-3.528917 -0.58201,-5.00245 -0.52579,-1.976736 -1.0463,-3.335642 -4.139222,-10.806403 -1.192528,-2.8804789 -1.709322,-3.6993273 -1.709322,-2.7083833 0,0.2202603 -0.670275,1.9151413 -1.489499,3.7664017 -3.367793,7.6104616 -4.401846,11.1298426 -4.41177,15.0154186 -0.0071,2.764512 0.487423,4.726871 1.844024,7.318004 0.940128,1.795661 2.578872,3.926787 3.019528,3.926787 0.134183,0 0.244985,-0.863203 0.246229,-1.918229 0.0029,-2.44134 0.444831,-7.493344 0.850609,-9.723437 l 0.312925,-1.719792 0.322831,3.042708 c 0.177557,1.67349 0.410666,4.762672 0.518018,6.864853 l 0.195185,3.822144 1.101993,-1.217189 c 0.606094,-0.669454 1.545754,-2.06167 2.088131,-3.093813 z"
           id="path179"
           sodipodi:nodetypes="sssscsssssscccssssscssssssscscsssscssscsssccsssssssscccssssssssssssssssssssssssssssssccssssssssssssssssssssssssssssssssssssssssscsssscssssssssssssssscsssssssssssssssssssssssssscsssssssssssssssssssssssssssssccsssssssssscsscsssscsscscssssssscsscscsscss" /><text
           xml:space="preserve"
           style="font-size:35.6831px;fill:#000000;stroke-width:2.46167"
           x="-12.386599"
           y="124.65297"
           id="text441"
           transform="scale(0.89441369,1.1180509)"><tspan
             sodipodi:role="line"
             id="tspan439"
             style="font-style:normal;font-variant:normal;font-weight:bold;font-stretch:normal;font-size:35.6831px;font-family:Ubuntu;-inkscape-font-specification:'Ubuntu Bold';stroke-width:2.46167"
             x="-12.386599"
             y="124.65297">AXOTLACUALI</tspan></text></g></g></g></svg>
